<?xml version="1.0" standalone="no"?>
<!DOCTYPE svg PUBLIC "-//W3C//DTD SVG 20010904//EN"
 "http://www.w3.org/TR/2001/REC-SVG-20010904/DTD/svg10.dtd">
<svg version="1.0" xmlns="http://www.w3.org/2000/svg"
 width="700.000000pt" height="700.000000pt" viewBox="0 0 700.000000 700.000000"
 preserveAspectRatio="xMidYMid meet">
<metadata>
Created by potrace 1.14, written by Peter Selinger 2001-2017
</metadata>
<g transform="translate(0.000000,700.000000) scale(0.100000,-0.100000)"
fill="#000000" stroke="none">
<path d="M6230 6989 c-155 -14 -204 -20 -345 -40 -474 -68 -909 -201 -1281
-393 -158 -81 -219 -119 -362 -220 -157 -111 -242 -188 -617 -562 l-356 -356
-47 11 c-26 6 -168 42 -317 81 -840 218 -857 223 -918 217 -119 -11 -91 15
-1049 -944 -612 -614 -893 -902 -909 -933 -33 -62 -34 -203 -3 -270 27 -58 87
-121 143 -149 24 -13 230 -71 458 -130 l415 -107 -254 -255 c-139 -140 -266
-270 -281 -290 -39 -52 -59 -115 -59 -193 0 -136 -43 -87 949 -1077 857 -856
890 -887 948 -909 104 -38 220 -24 300 35 17 12 147 139 289 281 143 142 261
254 262 249 2 -6 26 -100 54 -210 175 -682 170 -664 239 -733 65 -64 122 -86
221 -87 69 0 95 4 135 23 41 19 218 192 937 910 978 977 938 931 943 1062 3
55 -10 117 -86 405 -49 187 -108 412 -130 500 -23 88 -54 206 -69 262 l-27
101 329 329 c368 367 405 405 468 483 25 30 47 57 51 60 16 15 136 190 192
280 52 86 181 337 217 425 88 212 155 426 211 669 30 131 33 149 44 220 4 21
9 48 11 60 2 11 7 41 10 66 3 25 8 53 9 62 2 9 7 48 10 85 4 37 9 76 11 86 10
55 19 259 19 447 0 214 0 215 -27 270 -36 74 -88 126 -156 158 -56 27 -61 27
-277 28 -121 0 -258 -3 -305 -7z"/>
</g>
</svg>
